@startuml

Alive: Базовое состояние экземпляра.
Alive: Пока не обнаружено обратное, узел считается здоровым и доступным.

Pending: При обнаружении недоступности ноды ее статус в течение заданного времени поддерживается как Pending.
Pending: Pending-ноды не исключаются из кольца
Pending: Такой механизм необходим, что бы при краткосрочной недоступности ноды (например, при перераскатке) не случадось перераспределения ключей.

Dead: Нода недоступна.
Dead: Dead-ноды не включены в хэш-кольцо

[*] --> Alive
Alive --> Pending
Pending --> Alive
Pending --> Dead
Dead --> Alive

@enduml